<?xml version="1.0" encoding="iso-8859-1"?>
<!-- Uploaded to: SVG Repo, www.svgrepo.com, Generator: SVG Repo Mixer Tools -->
<svg version="1.1" id="Layer_1" xmlns="http://www.w3.org/2000/svg" xmlns:xlink="http://www.w3.org/1999/xlink" 
	 viewBox="0 0 339.475 339.475" xml:space="preserve">
<g>
	<rect x="64.609" y="172.483" style="fill:#FFD155;" width="210.256" height="114.438"/>
	<rect x="124.041" y="234.702" style="fill:#F59D00;" width="91.393" height="52.219"/>
	<rect x="274.865" y="212.054" style="fill:#F59D00;" width="57.109" height="74.868"/>
	<rect x="7.5" y="212.054" style="fill:#F59D00;" width="57.109" height="74.868"/>
	<g>
		<polygon style="fill:#F59D00;" points="64.609,172.483 274.865,172.483 169.737,80.994 		"/>
		<g>
			<path style="fill:#E87E04;" d="M331.975,204.553h-49.609v-32.07c0-2.15-0.957-4.244-2.576-5.658L174.661,75.337
				c-2.824-2.456-7.024-2.456-9.848,0L59.686,166.826c-1.574,1.366-2.577,3.458-2.577,5.658v32.07H7.5c-4.142,0-7.5,3.358-7.5,7.5
				v74.868c0,4.142,3.358,7.5,7.5,7.5c10.201,0,322.36,0,324.475,0c4.143,0,7.5-3.358,7.5-7.5v-74.868
				C339.475,207.911,336.117,204.553,331.975,204.553z M169.737,90.937l85.085,74.046H84.652L169.737,90.937z M15,219.553h42.109
				v59.868H15V219.553z M72.109,179.983h195.256c0,15.733,0,89.261,0,99.438h-44.432v-44.719c0-4.142-3.357-7.5-7.5-7.5h-91.393
				c-4.142,0-7.5,3.358-7.5,7.5v44.719H72.109C72.109,269.21,72.109,193.657,72.109,179.983z M131.541,279.421v-37.219h76.393
				v37.219H131.541z M324.475,279.421h-42.109v-59.868h42.109V279.421z"/>
			<path style="fill:#E87E04;" d="M36.852,178.14L169.737,62.495l132.887,115.645c3.124,2.718,7.862,2.391,10.581-0.734
				c2.72-3.125,2.391-7.862-0.733-10.581L174.661,46.895c-2.824-2.456-7.025-2.456-9.847,0l-137.81,119.93
				c-3.125,2.719-3.454,7.457-0.734,10.582C28.99,180.531,33.727,180.859,36.852,178.14z"/>
		</g>
	</g>
</g>
</svg>